# AST/ASF file generated using VICON BodyLanguage
# -----------------------------------------------
:version 1.10
:name VICON
:units
  mass 1.0
  length 0.45
  angle deg
:documentation
   .ast/.asf automatically generated from VICON data using
   VICON BodyBuilder and BodyLanguage model FoxedUp or BRILLIANT.MOD
:root
   order TX TY TZ RX RY RZ
   axis XYZ
   position 0 0 0  
   orientation 0 0 0 
:bonedata
  begin
     id 1 
     name lhipjoint
     direction 0.440178 -0.822639 0.359871 
     length 2.53113 
     axis 0 0 0  XYZ
  end
  begin
     id 2 
     name lfemur
     direction 0.34202 -0.939693 0  
     length 7.88132  
     axis 0 0 20  XYZ
    dof rx ry rz
    limits (-160.0 20.0)
           (-70.0 70.0)
           (-60.0 70.0)
  end
  begin
     id 3 
     name ltibia
     direction 0.34202 -0.939693 0   
     length 8.43783   
     axis 0 0 20   XYZ
    dof rx
    limits (-10.0 170.0)
  end
  begin
     id 4 
     name lfoot
     direction 0.0886351 -0.243523 0.965837   
     length 2.63414   
     axis -90 7.62852e-016 20   XYZ
    dof rx rz
    limits (-45.0 90.0)
           (-70.0 20.0)
  end
  begin
     id 5 
     name ltoes
     direction 1.53703e-011 -4.21717e-011 1   
     length 1.31427   
     axis -90 7.62852e-016 20   XYZ
    dof rx
    limits (-90.0 20.0)
  end
  begin
     id 6 
     name rhipjoint
     direction -0.399779 -0.839773 0.367367   
     length 2.47948  
     axis 0 0 0  XYZ 
  end
  begin
     id 7 
     name rfemur
     direction -0.34202 -0.939693 0   
     length 7.74806   
     axis 0 0 -20   XYZ
    dof rx ry rz
    limits (-160.0 20.0)
           (-70.0 70.0)
           (-70.0 60.0)
  end
  begin
     id 8 
     name rtibia
     direction -0.34202 -0.939693 0   
     length 8.74432   
     axis 0 0 -20   XYZ
    dof rx
    limits (-10.0 170.0)
 end
 begin
     id 9 
     name rfoot
     direction -0.108514 -0.298139 0.948334   
     length 2.66102  
     axis -90 -7.62852e-016 -20   XYZ
    dof rx rz
    limits (-45.0 90.0)
           (-20.0 70.0)
  end
  begin
     id 10 
     name rtoes
     direction -1.53392e-011 -4.22077e-011 1   
     length 1.31983   
     axis -90 -7.62852e-016 -20   XYZ
    dof rx
    limits (-90.0 20.0)
  end
  begin
     id 11 
     name lowerback
     direction 0.0113257 0.999866 0.0118602   
     length 2.58694   
     axis 0 0 0   XYZ
    dof rx ry rz
    limits (-20.0 45.0)
           (-30.0 30.0)
           (-30.0 30.0)
  end
  begin
     id 12 
     name upperback
     direction -0.0164747 0.995193 -0.0965375   
     length 2.52368   
     axis 0 0 0   XYZ
    dof rx ry rz
    limits (-20.0 45.0)
           (-30.0 30.0)
           (-30.0 30.0)
  end
  begin
     id 13 
     name thorax
     direction -0.0194301 0.99433 -0.104552   
     length 2.56099   
     axis 0 0 0   XYZ
    dof rx ry rz
    limits (-20.0 45.0)
           (-30.0 30.0)
           (-30.0 30.0)
  end
  begin
     id 14 
     name lowerneck
     direction 0.0148543 0.995587 -0.092657   
     length 1.71582   
     axis 0 0 0   XYZ
    dof rx ry rz
    limits (-20.0 45.0)
           (-30.0 30.0)
           (-30.0 30.0)
  end
  begin
     id 15 
     name upperneck
     direction -0.0135467 0.993656 -0.111639   
     length 1.68937   
     axis 0 0 0   XYZ
    dof rx ry rz
    limits (-20.0 45.0)
           (-30.0 30.0)
           (-30.0 30.0)
  end
  begin
     id 16
     name head
     direction -0.00615349 0.999547 -0.029448  
     length 1.7462  
     axis 0 0 0   XYZ
    dof rx ry rz
    limits (-20.0 45.0)
           (-30.0 30.0)
           (-30.0 30.0)
  end
  begin
     id 17 
     name lclavicle
     direction 0.988267 0.149885 0.0293713  
     length 4.47222  
     axis 0 0 0   XYZ
    dof ry rz
    limits (-20.0 10.0)
           (0.0 20.0)
  end
  begin
     id 18 
     name lhumerus
     direction 1 -4.48986e-011 -1.14833e-027   
     length 5.37148   
     axis 180 -30 -90   XYZ
    dof rx ry rz
    limits (-60.0 90.0)
           (-90.0 90.0)
           (-90.0 90.0)
  end
  begin
     id 19
     name lradius
     direction 0.999998 0.00170963 -0.000987055   
     length 3.94212   
     axis 180 -30 -90   XYZ
    dof rx
    limits (-10.0 170.0)
  end
  begin
     id 20
     name lwrist
     direction 0.999998 7.53149e-005 -0.00194706   
     length 1.97106   
     axis 4.65056e-015 90 90   XYZ
    dof ry
    limits (-180.0 0.0)
 end
  begin
     id 21 
     name lhand
     direction 1 -4.48973e-011 -1.31746e-026   
     length 1.17917   
     axis 8.4065e-015 90 90   XYZ
    dof rx rz
    limits (-90.0 90.0)
           (-45.0 45.0)
  end
  begin
     id 22 
     name lfingers
     direction 1 -4.49107e-011 -2.63492e-026   
     length 0.950679   
     axis 1.6813e-014 90 90   XYZ
    dof rx
    limits (0.0 90.0)
  end
  begin
     id 23
     name lthumb
     direction 0.707107 -6.35048e-011 0.707107   
     length 1.36499   
     axis -90 45 2.85299e-015   XYZ
    dof rx rz
    limits (-45.0 45.0)
           (-45.0 45.0)
  end
  begin
     id 24 
     name rclavicle
     direction -0.996699 0.0642895 -0.0495725   
     length 4.62611  
     axis 0 0 0   XYZ 
    dof ry rz
    limits (-10.0 20.0)
           (-20.0 0.0)
  end
  begin
     id 25 
     name rhumerus
     direction -1 -4.48919e-011 -2.41059e-027  
     length 5.4981   
     axis 180 30 90   XYZ
    dof rx ry rz
    limits (-90.0 60.0)
           (-90.0 90.0)
           (-90.0 90.0)
  end
  begin
     id 26 
     name rradius
     direction -0.999999 0.00118101 -0.000681858   
     length 3.48381   
     axis 180 30 90   XYZ
    dof rx
    limits (-10.0 170.0)
  end
  begin
     id 27 
     name rwrist
     direction -0.999999 0.000321823 -0.00132288   
     length 1.7419   
     axis 4.65056e-015 -90 -90   XYZ
    dof ry
    limits (-180.0 0.0)
  end
  begin
     id 28
     name rhand
     direction -1 -4.49022e-011 -1.31746e-026   
     length 1.34932   
     axis 8.4065e-015 -90 -90   XYZ
    dof rx rz
    limits (-90.0 90.0)
           (-45.0 45.0)
  end
  begin
     id 29
     name rfingers
     direction -1 -4.49178e-011 -2.63492e-026   
     length 1.08785   
     axis 1.6813e-014 -90 -90   XYZ
    dof rx
    limits (0.0 90.0)
  end
  begin
     id 30
     name rthumb
     direction -0.707107 -6.34713e-011 0.707107   
     length 1.56195   
     axis -90 -45 -2.85299e-015   XYZ
    dof rx rz
    limits (-45.0 45.0)
           (-45.0 45.0)
  end
:hierarchy
  begin
    root lhipjoint rhipjoint lowerback
    lhipjoint lfemur
    lfemur ltibia
    ltibia lfoot
    lfoot ltoes
    rhipjoint rfemur
    rfemur rtibia
    rtibia rfoot
    rfoot rtoes
    lowerback upperback
    upperback thorax
    thorax lowerneck lclavicle rclavicle
    lowerneck upperneck
    upperneck head
    lclavicle lhumerus
    lhumerus lradius
    lradius lwrist
    lwrist lhand lthumb
    lhand lfingers
    rclavicle rhumerus
    rhumerus rradius
    rradius rwrist
    rwrist rhand rthumb
    rhand rfingers
  end

#!OML:ASF X:\für Bonn\!DataBase\2005_08_10_Bjorn_Final\c3d\bjorn.ASF
:FULLY-SPECIFIED
:DEGREES
17
root 0.822091 18.6721 2.02577 -177.763 0.981441 -177.723
lowerback -0.975397 1.95066 4.84775
upperback 4.7362 2.64689 -0.0497313
thorax 5.68718 1.62569 -2.59393
lowerneck -5.81514 -3.52652 -1.54069
upperneck 5.51352 -4.63226 0.442688
head 2.81653 -2.32579 0.211281
rclavicle 5.25661e-014 2.41026e-015
rhumerus 67.6098 0.547792 -84.6453
rradius 8.91938
rwrist 52.2354
rhand -12.2284 7.77922
rfingers 7.12502
rthumb 13.8369 -21.7405
lclavicle 5.25661e-014 2.41026e-015
lhumerus 73.533 -17.6188 70.5054
lradius 8.19106
lwrist -46.1842
lhand -17.847 -7.20344
lfingers 7.12502
lthumb 8.41801 22.6088
rfemur -15.352 -8.59542 19.2268
rtibia 39.4962
rfoot -25.3997 12.697
rtoes -15.568
lfemur -14.6466 2.55736 -13.6742
ltibia 40.5694
lfoot -24.0263 -1.32936
ltoes -22.9048
18
root 0.824809 18.6194 2.04146 -177.796 1.105 -177.499
lowerback -0.76006 1.94939 5.01283
upperback 4.85691 2.66207 0.0301347
thorax 5.69738 1.64859 -2.60641
lowerneck -5.98829 -3.53972 -1.53618
upperneck 5.19237 -4.64383 0.50553
head 2.74217 -2.32615 0.230384
rclavicle 1.65737e-014 -5.71506e-015
rhumerus 67.6606 0.517425 -84.7518
rradius 9.04534
rwrist 52.1871
rhand -12.341 7.85169
rfingers 7.12502
rthumb 13.7284 -21.6754
lclavicle 1.65737e-014 -5.71506e-015
lhumerus 73.6467 -17.6224 70.4577
lradius 8.13801
lwrist -46.1622
lhand -17.8409 -7.15925
lfingers 7.12502
lthumb 8.42389 22.6528
rfemur -15.9117 -8.47969 19.5008
rtibia 40.5054
rfoot -25.9057 12.7465
rtoes -15.684
lfemur -15.2289 2.33076 -13.498
ltibia 41.7193
lfoot -24.4659 -0.574151
ltoes -23.6664
19
root 0.826909 18.563 2.0569 -177.839 1.22221 -177.311
lowerback -0.507736 1.926 5.12408
upperback 4.96518 2.65226 0.118168
thorax 5.66765 1.65548 -2.58381
lowerneck -6.18666 -3.54035 -1.58405
upperneck 4.90564 -4.63562 0.57168
head 2.68572 -2.31835 0.259396
rclavicle 3.45264e-014 8.34896e-015
rhumerus 67.6963 0.551002 -84.8415
rradius 9.1816
rwrist 52.184
rhand -12.3961 7.91772
rfingers 7.12502
rthumb 13.6753 -21.613
lclavicle 3.45264e-014 8.34896e-015
lhumerus 73.6712 -17.5831 70.4352
lradius 8.14054
lwrist -45.9863
lhand -17.8149 -7.10624
lfingers 7.12502
lthumb 8.449 22.7048
rfemur -16.4928 -8.40353 19.7353
rtibia 41.5751
rfoot -26.454 12.7402
rtoes -15.9855
lfemur -15.8249 2.11825 -13.363
ltibia 42.9064
lfoot -24.8642 0.147754
ltoes -24.3763
20
root 0.829833 18.5067 2.07207 -177.832 1.32565 -177.102
lowerback -0.306532 1.91338 5.26365
upperback 5.08732 2.65459 0.200524
thorax 5.68499 1.67162 -2.57961
lowerneck -6.51871 -3.5523 -1.57605
upperneck 4.64904 -4.64489 0.617952
head 2.66252 -2.31892 0.268787
rclavicle -4.88265e-014 1.02374e-014
rhumerus 67.7679 0.52699 -84.9272
rradius 9.32065
rwrist 52.1898
rhand -12.5055 8.02492
rfingers 7.12502
rthumb 13.5699 -21.5129
lclavicle -4.88265e-014 1.02374e-014
lhumerus 73.7442 -17.5865 70.401
lradius 8.14468
lwrist -45.722
lhand -17.8533 -7.10028
lfingers 7.12502
lthumb 8.41189 22.7122
rfemur -17.151 -8.34823 20.0086
rtibia 42.6848
rfoot -27.0157 12.6593
rtoes -16.5192
lfemur -16.4904 1.90636 -13.2019
ltibia 44.1337
lfoot -25.2606 0.83471
ltoes -25.0568
21
root 0.832193 18.446 2.08987 -177.754 1.41743 -176.919
lowerback -0.128595 1.88448 5.36004
upperback 5.18568 2.63338 0.290826
thorax 5.68565 1.67206 -2.5443
lowerneck -6.89973 -3.55318 -1.55882
upperneck 4.40309 -4.63818 0.610874
head 2.65004 -2.31385 0.259193
rclavicle 9.95166e-015 -1.08338e-014
rhumerus 67.8535 0.570008 -85.0089
rradius 9.446
rwrist 52.2308
rhand -12.59 8.11861
rfingers 7.12502
rthumb 13.4884 -21.4246
lclavicle 9.95166e-015 -1.08338e-014
lhumerus 73.7664 -17.5674 70.3951
lradius 8.16155
lwrist -45.3546
lhand -17.929 -7.08762
lfingers 7.12502
lthumb 8.33887 22.7278
rfemur -17.9326 -8.35671 20.2666
rtibia 43.8492
rfoot -27.5885 12.5427
rtoes -17.274
lfemur -17.2736 1.71897 -13.0666
ltibia 45.4139
lfoot -25.6085 1.46863
ltoes -25.5953
22
root 0.835038 18.3851 2.1068 -177.659 1.47972 -176.749
lowerback 0.0422223 1.84913 5.46062
upperback 5.27986 2.60391 0.357968
thorax 5.68672 1.66898 -2.53567
lowerneck -7.27345 -3.55814 -1.51379
upperneck 4.12851 -4.64149 0.600995
head 2.62575 -2.31424 0.243916
rclavicle -4.48508e-015 2.48481e-016
rhumerus 67.9518 0.571158 -85.1084
rradius 9.5594
rwrist 52.233
rhand -12.6095 8.25736
rfingers 7.12502
rthumb 13.4696 -21.2871
lclavicle -4.48508e-015 2.48481e-016
lhumerus 73.7289 -17.5649 70.362
lradius 8.28333
lwrist -44.8904
lhand -17.9294 -7.03795
lfingers 7.12502
lthumb 8.33848 22.7775
rfemur -18.7531 -8.45944 20.5054
rtibia 45.0599
rfoot -28.101 12.4875
rtoes -17.8951
lfemur -18.1192 1.5479 -12.952
ltibia 46.7649
lfoot -25.98 2.11744
ltoes -26.1781
23
root 0.838158 18.3222 2.1248 -177.544 1.54144 -176.603
lowerback 0.228332 1.81675 5.51878
upperback 5.37437 2.58145 0.427266
thorax 5.67755 1.66738 -2.50126
lowerneck -7.67867 -3.55897 -1.44266
upperneck 3.83518 -4.64331 0.577705
head 2.59983 -2.31491 0.219522
rclavicle 2.76062e-014 1.00386e-014
rhumerus 68.048 0.580463 -85.1981
rradius 9.70527
rwrist 52.281
rhand -12.6578 8.35827
rfingers 7.12502
rthumb 13.423 -21.1893
lclavicle 2.76062e-014 1.00386e-014
lhumerus 73.644 -17.6132 70.364
lradius 8.47936
lwrist -44.4119
lhand -17.8945 -6.96691
lfingers 7.12502
lthumb 8.37212 22.8472
rfemur -19.6381 -8.56426 20.7306
rtibia 46.3386
rfoot -28.6145 12.3657
rtoes -18.6307
lfemur -19.0349 1.40471 -12.8635
ltibia 48.2061
lfoot -26.3722 2.72804
ltoes -26.5979
